<svg width="25" height="26" viewBox="0 0 25 26" fill="none" xmlns="http://www.w3.org/2000/svg">
<g clip-path="url(#clip0_6_2554)">
<path d="M0 10.2098C0 15.8393 4.58035 20.4196 10.2098 20.4196C12.436 20.4196 14.4703 19.7032 16.1464 18.5005L22.4411 24.8081C22.7354 25.1023 23.1192 25.2431 23.5286 25.2431C24.3986 25.2431 25 24.5906 25 23.7334C25 23.3239 24.8465 22.9529 24.5778 22.6842L18.3214 16.3894C19.6392 14.675 20.4196 12.5384 20.4196 10.2098C20.4196 4.58035 15.8393 0 10.2098 0C4.58035 0 0 4.58035 0 10.2098ZM2.18782 10.2098C2.18782 5.783 5.783 2.18782 10.2098 2.18782C14.6366 2.18782 18.2318 5.783 18.2318 10.2098C18.2318 14.6366 14.6366 18.2318 10.2098 18.2318C5.783 18.2318 2.18782 14.6366 2.18782 10.2098Z" fill="#3F20C0"/>
</g>
<defs>
<clipPath id="clip0_6_2554">
<rect width="25" height="25.2431" fill="white"/>
</clipPath>
</defs>
</svg>
