<svg width="25" height="19" viewBox="0 0 25 19" fill="none" xmlns="http://www.w3.org/2000/svg">
<g clip-path="url(#clip0_6_2569)">
<path d="M7.04715 2.5806H23.995C24.5534 2.5806 25 2.14637 25 1.58806C25 1.01734 24.5534 0.583092 23.995 0.583092H7.04715C6.47643 0.583092 6.04218 1.01734 6.04218 1.58806C6.04218 2.14637 6.47643 2.5806 7.04715 2.5806ZM7.04715 10.0868H23.995C24.5534 10.0868 25 9.64017 25 9.08185C25 8.52353 24.5534 8.08928 23.995 8.08928H7.04715C6.47643 8.08928 6.04218 8.52353 6.04218 9.08185C6.04218 9.64017 6.47643 10.0868 7.04715 10.0868ZM7.04715 17.5806H23.995C24.5534 17.5806 25 17.1464 25 16.5881C25 16.0173 24.5534 15.5831 23.995 15.5831H7.04715C6.47643 15.5831 6.04218 16.0173 6.04218 16.5881C6.04218 17.1464 6.47643 17.5806 7.04715 17.5806ZM1.56327 3.13892C2.43176 3.13892 3.12655 2.44413 3.12655 1.58806C3.12655 0.719569 2.43176 0.0247803 1.56327 0.0247803C0.69479 0.0247803 0 0.719569 0 1.58806C0 2.44413 0.69479 3.13892 1.56327 3.13892ZM1.56327 10.6451C2.43176 10.6451 3.12655 9.95035 3.12655 9.08185C3.12655 8.21336 2.43176 7.51856 1.56327 7.51856C0.69479 7.51856 0 8.21336 0 9.08185C0 9.95035 0.69479 10.6451 1.56327 10.6451ZM1.56327 18.1513C2.43176 18.1513 3.12655 17.4441 3.12655 16.5881C3.12655 15.7196 2.43176 15.0248 1.56327 15.0248C0.69479 15.0248 0 15.7196 0 16.5881C0 17.4441 0.69479 18.1513 1.56327 18.1513Z" fill="#3F20C0"/>
</g>
<defs>
<clipPath id="clip0_6_2569">
<rect width="25" height="18.1513" fill="white"/>
</clipPath>
</defs>
</svg>
