<svg width="24" height="25" viewBox="0 0 24 25" fill="none" xmlns="http://www.w3.org/2000/svg">
<rect width="24" height="24.0118" rx="12" fill="black"/>
<g clip-path="url(#clip0_84_24328)">
<path d="M12 24C18.5647 24 24 18.5529 24 12C24 5.43529 18.5529 0 11.9882 0C5.43529 0 0 5.43529 0 12C0 18.5529 5.44705 24 12 24ZM6.25883 12.0118C6.25883 11.4 6.68236 10.9765 7.29411 10.9765H10.9765V7.29411C10.9765 6.68236 11.3882 6.24705 11.9882 6.24705C12.6 6.24705 13.0235 6.68236 13.0235 7.29411V10.9765H16.7177C17.3176 10.9765 17.7529 11.4 17.7529 12.0118C17.7529 12.6118 17.3176 13.0118 16.7177 13.0118H13.0235V16.7059C13.0235 17.3176 12.6 17.7412 11.9882 17.7412C11.3882 17.7412 10.9765 17.3059 10.9765 16.7059V13.0118H7.29411C6.68236 13.0118 6.25883 12.6118 6.25883 12.0118Z" fill="white"/>
</g>
<defs>
<clipPath id="clip0_84_24328">
<rect width="24" height="24.0118" fill="white"/>
</clipPath>
</defs>
</svg>
