<svg width="24" height="25" viewBox="0 0 24 25" fill="none" xmlns="http://www.w3.org/2000/svg">
<path d="M0 12C0 12.7127 0.596363 13.2945 1.29454 13.2945H10.7055V22.7055C10.7055 23.4037 11.2873 24 12 24C12.7127 24 13.3091 23.4037 13.3091 22.7055V13.2945H22.7055C23.4037 13.2945 24 12.7127 24 12C24 11.2873 23.4037 10.6909 22.7055 10.6909H13.3091V1.29454C13.3091 0.596363 12.7127 0 12 0C11.2873 0 10.7055 0.596363 10.7055 1.29454V10.6909H1.29454C0.596363 10.6909 0 11.2873 0 12Z" fill="#3F63C0"/>
</svg>
