<svg width="16" height="16" viewBox="0 0 16 16" fill="none" xmlns="http://www.w3.org/2000/svg">
<rect width="16" height="16" rx="8" fill="black"/>
<path d="M8 15.9922C12.3765 15.9922 16 12.3626 16 7.99608C16 3.62176 12.3686 0 7.99216 0C3.62353 0 0 3.62176 0 7.99608C0 12.3626 3.63137 15.9922 8 15.9922ZM5.3647 11.2886C5.00391 11.2886 4.72156 10.9985 4.72156 10.6379C4.72156 10.4655 4.78432 10.3008 4.9098 10.1832L7.08235 8.00392L4.9098 5.83243C4.78432 5.70701 4.72156 5.55022 4.72156 5.37776C4.72156 5.00931 5.00391 4.73494 5.3647 4.73494C5.5451 4.73494 5.68627 4.79765 5.81176 4.91523L8 7.09457L10.2039 4.9074C10.3373 4.77413 10.4784 4.71925 10.651 4.71925C11.0118 4.71925 11.302 5.00146 11.302 5.36207C11.302 5.54238 11.2471 5.68349 11.1059 5.8246L8.92549 8.00392L11.098 10.1754C11.2314 10.293 11.2941 10.4576 11.2941 10.6379C11.2941 10.9985 11.0039 11.2886 10.6353 11.2886C10.4549 11.2886 10.2902 11.2259 10.1726 11.1004L8 8.92112L5.83529 11.1004C5.70981 11.2259 5.5451 11.2886 5.3647 11.2886Z" fill="white"/>
</svg>
