<svg width="24" height="24" viewBox="0 0 24 24" fill="none" xmlns="http://www.w3.org/2000/svg">
<g clip-path="url(#clip0_9_3727)">
<path d="M0.960939 0.075016C0.431251 0.267202 0.164064 0.951578 0.421876 1.45314C0.473439 1.55158 2.27813 4.12033 4.43438 7.15783C6.59063 10.1906 8.41406 12.7875 8.49375 12.9188C8.56875 13.0547 8.65313 13.2328 8.68594 13.3219C8.72344 13.4344 8.74688 14.761 8.76563 18.3516C8.79375 23.7422 8.77031 23.3906 9.09375 23.7047C9.30938 23.9156 9.6 24.0188 9.88125 23.986C10.2 23.9438 14.6953 22.2141 14.8969 22.0547C14.9859 21.9844 15.0984 21.8391 15.1453 21.7313C15.2297 21.5485 15.2344 21.3516 15.2344 17.6953C15.2344 13.4953 15.2391 13.4578 15.5063 12.9656C15.5813 12.8297 17.4141 10.2188 19.5797 7.1672C21.7453 4.11564 23.5547 1.54689 23.5969 1.45783C23.6438 1.37345 23.6906 1.19533 23.7047 1.05939C23.7375 0.721889 23.5453 0.360952 23.2266 0.164078L23.0016 0.0234528L12.075 0.0140781C2.60625 0.00938988 1.125 0.0140781 0.960939 0.075016ZM21.9656 1.69689C20.9109 3.17345 14.7047 11.9297 14.5969 12.1031C14.4 12.4125 14.2594 12.7125 14.1469 13.0875C14.0438 13.425 14.0438 13.4719 14.0156 17.2969L13.9922 21.1641L12 21.9235L10.0078 22.6781L9.98438 18.0094C9.95625 12.8719 9.975 13.2047 9.66094 12.5391C9.48281 12.1547 9.825 12.6469 5.50781 6.56251C3.46875 3.68908 1.78125 1.30783 1.7625 1.27501C1.73438 1.23283 3.80156 1.21877 12.0188 1.21877H22.3125L21.9656 1.69689Z" fill="#3F63C0"/>
</g>
<defs>
<clipPath id="clip0_9_3727">
<rect width="24" height="24" fill="white"/>
</clipPath>
</defs>
</svg>
