<svg width="25" height="24" viewBox="0 0 25 24" fill="none" xmlns="http://www.w3.org/2000/svg">
<g clip-path="url(#clip0_6_2581)">
<path d="M3.93878 23.1185H21.0737C23.6954 23.1185 25 21.8139 25 19.2299V3.91376C25 1.32971 23.6954 0.0251465 21.0737 0.0251465H3.93878C1.31711 0.0251465 0 1.31717 0 3.91376V19.2299C0 21.8264 1.31711 23.1185 3.93878 23.1185ZM3.75062 21.0989C2.63422 21.0989 2.01957 20.5093 2.01957 19.3428V7.51384C2.01957 6.35983 2.63422 5.75771 3.75062 5.75771H21.2368C22.3532 5.75771 22.9804 6.35983 22.9804 7.51384V19.3428C22.9804 20.5093 22.3532 21.0989 21.2368 21.0989H3.75062ZM10.0602 10.261H10.8003C11.2393 10.261 11.3773 10.1355 11.3773 9.69648V8.95641C11.3773 8.51737 11.2393 8.37939 10.8003 8.37939H10.0602C9.62118 8.37939 9.47063 8.51737 9.47063 8.95641V9.69648C9.47063 10.1355 9.62118 10.261 10.0602 10.261ZM14.2248 10.261H14.9649C15.4039 10.261 15.5544 10.1355 15.5544 9.69648V8.95641C15.5544 8.51737 15.4039 8.37939 14.9649 8.37939H14.2248C13.7857 8.37939 13.6352 8.51737 13.6352 8.95641V9.69648C13.6352 10.1355 13.7857 10.261 14.2248 10.261ZM18.3893 10.261H19.1294C19.5685 10.261 19.719 10.1355 19.719 9.69648V8.95641C19.719 8.51737 19.5685 8.37939 19.1294 8.37939H18.3893C17.9503 8.37939 17.8123 8.51737 17.8123 8.95641V9.69648C17.8123 10.1355 17.9503 10.261 18.3893 10.261ZM5.89563 14.3628H6.62317C7.07477 14.3628 7.21275 14.2374 7.21275 13.7983V13.0583C7.21275 12.6192 7.07477 12.4938 6.62317 12.4938H5.89563C5.44405 12.4938 5.30607 12.6192 5.30607 13.0583V13.7983C5.30607 14.2374 5.44405 14.3628 5.89563 14.3628ZM10.0602 14.3628H10.8003C11.2393 14.3628 11.3773 14.2374 11.3773 13.7983V13.0583C11.3773 12.6192 11.2393 12.4938 10.8003 12.4938H10.0602C9.62118 12.4938 9.47063 12.6192 9.47063 13.0583V13.7983C9.47063 14.2374 9.62118 14.3628 10.0602 14.3628ZM14.2248 14.3628H14.9649C15.4039 14.3628 15.5544 14.2374 15.5544 13.7983V13.0583C15.5544 12.6192 15.4039 12.4938 14.9649 12.4938H14.2248C13.7857 12.4938 13.6352 12.6192 13.6352 13.0583V13.7983C13.6352 14.2374 13.7857 14.3628 14.2248 14.3628ZM18.3893 14.3628H19.1294C19.5685 14.3628 19.719 14.2374 19.719 13.7983V13.0583C19.719 12.6192 19.5685 12.4938 19.1294 12.4938H18.3893C17.9503 12.4938 17.8123 12.6192 17.8123 13.0583V13.7983C17.8123 14.2374 17.9503 14.3628 18.3893 14.3628ZM5.89563 18.4772H6.62317C7.07477 18.4772 7.21275 18.3392 7.21275 17.9002V17.1601C7.21275 16.7211 7.07477 16.5956 6.62317 16.5956H5.89563C5.44405 16.5956 5.30607 16.7211 5.30607 17.1601V17.9002C5.30607 18.3392 5.44405 18.4772 5.89563 18.4772ZM10.0602 18.4772H10.8003C11.2393 18.4772 11.3773 18.3392 11.3773 17.9002V17.1601C11.3773 16.7211 11.2393 16.5956 10.8003 16.5956H10.0602C9.62118 16.5956 9.47063 16.7211 9.47063 17.1601V17.9002C9.47063 18.3392 9.62118 18.4772 10.0602 18.4772ZM14.2248 18.4772H14.9649C15.4039 18.4772 15.5544 18.3392 15.5544 17.9002V17.1601C15.5544 16.7211 15.4039 16.5956 14.9649 16.5956H14.2248C13.7857 16.5956 13.6352 16.7211 13.6352 17.1601V17.9002C13.6352 18.3392 13.7857 18.4772 14.2248 18.4772Z" fill="#3F20C0"/>
</g>
<defs>
<clipPath id="clip0_6_2581">
<rect width="25" height="23.1184" fill="white"/>
</clipPath>
</defs>
</svg>
