<svg width="25" height="17" viewBox="0 0 25 17" fill="none" xmlns="http://www.w3.org/2000/svg">
<g clip-path="url(#clip0_25_23830)">
<path d="M11.5171 16.9211H22.7919C24.2909 16.9211 25 16.4722 25 15.4848C25 13.1329 22.0287 9.73076 17.1544 9.73076C12.2891 9.73076 9.3178 13.1329 9.3178 15.4848C9.3178 16.4722 10.027 16.9211 11.5171 16.9211ZM11.0862 15.5656C10.8528 15.5656 10.763 15.5028 10.763 15.3143C10.763 13.8421 13.0431 11.0862 17.1544 11.0862C21.2748 11.0862 23.5548 13.8421 23.5548 15.3143C23.5548 15.5028 23.4561 15.5656 23.2226 15.5656H11.0862ZM17.1634 8.61765C19.2998 8.61765 21.0413 6.71459 21.0413 4.39861C21.0413 2.10058 19.3088 0.296265 17.1634 0.296265C15.027 0.296265 13.2765 2.13649 13.2855 4.41656C13.2945 6.72358 15.027 8.61765 17.1634 8.61765ZM17.1634 7.26218C15.8528 7.26218 14.7307 6.00543 14.7307 4.41656C14.7218 2.85461 15.8259 1.65174 17.1634 1.65174C18.501 1.65174 19.5961 2.83667 19.5961 4.39861C19.5961 5.98749 18.483 7.26218 17.1634 7.26218ZM1.82227 16.9211H8.86896C8.43807 16.6787 8.11492 16.1401 8.17775 15.5925H1.60683C1.41832 15.5925 1.33753 15.5207 1.33753 15.3502C1.33753 13.1239 3.87794 11.0414 6.81329 11.0414C7.93539 11.0414 8.95874 11.3106 9.82947 11.8223C10.1078 11.4633 10.4399 11.1491 10.8438 10.8708C9.68583 10.1078 8.29446 9.7128 6.81329 9.7128C3.05208 9.7128 0 12.4417 0 15.4309C0 16.4274 0.610414 16.9211 1.82227 16.9211ZM6.82228 8.68946C8.67148 8.68946 10.1885 7.02877 10.1885 4.99106C10.1885 2.99825 8.68942 1.39142 6.82228 1.39142C4.97309 1.39142 3.44705 3.02518 3.45602 5.00902C3.45602 7.03774 4.97309 8.68946 6.82228 8.68946ZM6.82228 7.35193C5.71814 7.35193 4.79355 6.30166 4.79355 5.00902C4.79355 3.74331 5.70917 2.72895 6.82228 2.72895C7.95334 2.72895 8.85999 3.72536 8.85999 4.99106C8.85999 6.30166 7.9264 7.35193 6.82228 7.35193Z" fill="black" fill-opacity="0.85"/>
</g>
<defs>
<clipPath id="clip0_25_23830">
<rect width="25" height="16.921" fill="white"/>
</clipPath>
</defs>
</svg>
