<svg width="25" height="45" viewBox="0 0 25 45" fill="none" xmlns="http://www.w3.org/2000/svg">
<g clip-path="url(#clip0_25_23848)">
<path d="M6.23731 42.2022C7.76596 42.2022 8.7123 41.3473 8.69411 39.8549L8.33013 19.4178C8.33013 18.7809 8.6031 18.3077 9.16726 18.0529C11.5695 16.9974 12.6068 15.8873 12.4794 12.7026L11.9698 1.52868C11.9334 0.72794 11.4603 0.272978 10.7141 0.272978C10.0044 0.272978 9.56762 0.746139 9.56762 1.56507L9.69501 12.4296C9.69501 13.0666 9.29465 13.4669 8.69411 13.4669C8.07535 13.4669 7.63857 13.0847 7.63857 12.4842L7.45658 1.2375C7.43839 0.454962 6.98343 0 6.23731 0C5.49115 0 5.05438 0.454962 5.03619 1.2375L4.8542 12.4842C4.8542 13.0847 4.41746 13.4669 3.79869 13.4669C3.19814 13.4669 2.77957 13.0666 2.77957 12.4296L2.90696 1.56507C2.90696 0.746139 2.4884 0.272978 1.76045 0.272978C1.01432 0.272978 0.541154 0.72794 0.504756 1.52868L0.0133968 12.7026C-0.132191 15.8873 0.905124 16.9974 3.30733 18.0529C3.87148 18.3077 4.14445 18.7809 4.14445 19.4178L3.79869 39.8549C3.78051 41.3473 4.70862 42.2022 6.23731 42.2022ZM20.4686 26.3333L20.0864 39.7636C20.0318 41.3473 20.9963 42.2022 22.5068 42.2022C24.0537 42.2022 25 41.4199 25 39.9641V1.36489C25 0.436767 24.363 0 23.7079 0C23.0163 0 22.5614 0.36397 21.979 1.2193C19.0491 5.33216 17.12 13.0301 17.12 20.3096V21.2013C17.12 22.457 17.575 23.3851 18.4849 23.9857L19.5586 24.7136C20.2138 25.1686 20.5049 25.6781 20.4686 26.3333Z" fill="black" fill-opacity="0.85"/>
</g>
<defs>
<clipPath id="clip0_25_23848">
<rect width="25" height="44.8958" fill="white"/>
</clipPath>
</defs>
</svg>
