<svg width="25" height="26" viewBox="0 0 25 26" fill="none" xmlns="http://www.w3.org/2000/svg">
<path d="M11.5523 0.0524792C9.31743 0.375964 7.37106 1.8192 6.3832 3.87457C5.94307 4.79028 5.76212 5.52186 5.66921 6.76105C5.64476 7.08951 5.6203 7.17909 5.51272 7.30351C5.24863 7.60211 4.76938 7.52746 4.59821 7.16416C4.52486 7.00491 4.51508 6.9004 4.54442 6.50226C4.61289 5.48702 4.86229 4.45685 5.23885 3.61579C5.43447 3.18779 5.45403 2.92403 5.30732 2.71003C5.10681 2.43133 4.80361 2.43631 4.01626 2.73491C2.00142 3.5063 0.568543 5.23321 0.0892861 7.45779C-0.0329734 8.02513 -0.028083 9.29418 0.0941764 9.87646C0.480516 11.7079 1.56618 13.2706 3.04307 14.1315L3.39518 14.3356L3.40007 16.7791V19.2227L3.51255 19.3919C3.57613 19.4864 3.69839 19.586 3.7913 19.6208C4.01137 19.6955 20.8832 19.7104 21.157 19.6357C21.25 19.6059 21.382 19.5262 21.4505 19.4566L21.5678 19.3272L21.5825 16.8339L21.5972 14.3356L21.9493 14.1265C25.1133 12.2503 25.9741 7.90569 23.7832 4.89479C22.5752 3.23756 20.7609 2.30692 18.7559 2.32185C18.4184 2.32185 18.0468 2.34175 17.9245 2.36166L17.7044 2.3965L17.2203 1.93367C16.2129 0.963213 15 0.326197 13.7237 0.0972694C13.1124 -0.0122177 12.1245 -0.0321245 11.5523 0.0524792ZM6.60327 11.7377C6.72553 11.8622 6.77443 11.9617 6.79888 12.1508C6.89669 12.9073 7.34172 13.7981 8.3149 15.1766C8.60832 15.5897 8.51052 16.0326 8.09483 16.157C7.72806 16.2715 7.54222 16.1073 6.85268 15.0671C6.05066 13.8578 5.55673 12.539 5.70833 11.9915C5.77191 11.7527 6.00664 11.5735 6.24627 11.5735C6.40276 11.5735 6.47612 11.6083 6.60327 11.7377ZM12.863 11.7377C12.9803 11.8572 13.0341 11.9667 13.0586 12.1259C13.0732 12.2454 13.083 13.1163 13.0732 14.0618C13.0586 15.9928 13.0586 15.9828 12.7016 16.1371C12.5451 16.2018 12.4962 16.2068 12.3299 16.1471C12.2223 16.1073 12.0903 16.0127 12.0365 15.9381C11.9387 15.8037 11.9338 15.729 11.9191 14.0718C11.9093 13.1213 11.9191 12.2454 11.9338 12.1259C11.9827 11.8074 12.2174 11.5735 12.4962 11.5735C12.6624 11.5735 12.7309 11.6034 12.863 11.7377ZM19.0933 11.7029C19.1764 11.7726 19.2596 11.902 19.284 11.9915C19.3867 12.3548 19.1715 13.166 18.7607 14.0021C18.3255 14.878 17.5577 15.9878 17.279 16.1321C17.0736 16.2416 16.8193 16.1819 16.6432 15.9928C16.4427 15.7738 16.4525 15.4951 16.6774 15.1766C17.6506 13.7981 18.0957 12.9073 18.1935 12.1508C18.2619 11.6382 18.7412 11.3993 19.0933 11.7029Z" fill="#3F20C0"/>
<path d="M3.70818 20.9098C3.43432 21.0491 3.40009 21.1984 3.40009 22.3331C3.40009 23.4728 3.45388 23.8162 3.6984 24.2491C3.99182 24.7717 4.52976 25.1997 5.08727 25.3639C5.29266 25.4236 6.45657 25.4336 12.5206 25.4336C19.3818 25.4336 19.7193 25.4286 19.9687 25.344C20.7658 25.0603 21.338 24.4432 21.5189 23.6619C21.6216 23.204 21.6216 21.3378 21.5189 21.1288C21.3576 20.8103 22.0129 20.8302 12.5109 20.8302C4.75961 20.8302 3.85 20.8401 3.70818 20.9098Z" fill="#3F20C0"/>
</svg>
