<svg width="25" height="26" viewBox="0 0 25 26" fill="none" xmlns="http://www.w3.org/2000/svg">
<g clip-path="url(#clip0_12_3803)">
<path d="M6.09069 13.8235H12.4878C12.9657 13.8235 13.3456 13.4559 13.3456 12.9657V4.70588C13.3456 4.22794 12.9657 3.8603 12.4878 3.8603C12.0098 3.8603 11.6421 4.22794 11.6421 4.70588V12.1201H6.09069C5.6005 12.1201 5.23284 12.4878 5.23284 12.9657C5.23284 13.4559 5.6005 13.8235 6.09069 13.8235ZM12.5 25C19.3382 25 25 19.326 25 12.5C25 5.66177 19.326 0 12.4878 0C5.66177 0 0 5.66177 0 12.5C0 19.326 5.67401 25 12.5 25ZM12.5 22.9167C6.71568 22.9167 2.09559 18.2843 2.09559 12.5C2.09559 6.71568 6.70343 2.08333 12.4878 2.08333C18.272 2.08333 22.9167 6.71568 22.9167 12.5C22.9167 18.2843 18.2843 22.9167 12.5 22.9167Z" fill="black" fill-opacity="0.85"/>
</g>
<defs>
<clipPath id="clip0_12_3803">
<rect width="25" height="25.0122" fill="white"/>
</clipPath>
</defs>
</svg>
